<svg xmlns="http://www.w3.org/2000/svg" xmlns:xlink="http://www.w3.org/1999/xlink" width="48" zoomAndPan="magnify" viewBox="0 0 36 36.000001" height="48" preserveAspectRatio="xMidYMid meet" version="1.2"><defs><clipPath id="adf8472615"><path d="M 0.488281 17 L 35.511719 17 L 35.511719 35 L 0.488281 35 Z M 0.488281 17 "/></clipPath><clipPath id="17d1adc1af"><path d="M 20 19 L 27.726562 19 L 27.726562 25 L 20 25 Z M 20 19 "/></clipPath><clipPath id="20cd7cc2e6"><path d="M 8.027344 19 L 16 19 L 16 25 L 8.027344 25 Z M 8.027344 19 "/></clipPath><clipPath id="8e6c2e6330"><path d="M 15 16.785156 L 21 16.785156 L 21 27 L 15 27 Z M 15 16.785156 "/></clipPath><clipPath id="4ab3b863a9"><path d="M 14 27 L 22 27 L 22 33.566406 L 14 33.566406 Z M 14 27 "/></clipPath><clipPath id="7241de07e5"><path d="M 17 32 L 19 32 L 19 33.566406 L 17 33.566406 Z M 17 32 "/></clipPath><clipPath id="5fc34ce9d9"><path d="M 21 29 L 26 29 L 26 33.566406 L 21 33.566406 Z M 21 29 "/></clipPath><clipPath id="d601b2ed44"><path d="M 23 32 L 25 32 L 25 33.566406 L 23 33.566406 Z M 23 32 "/></clipPath><clipPath id="9bb148d6c1"><path d="M 10 29 L 15 29 L 15 33.566406 L 10 33.566406 Z M 10 29 "/></clipPath><clipPath id="b69a7e6ab7"><path d="M 11 32 L 13 32 L 13 33.566406 L 11 33.566406 Z M 11 32 "/></clipPath></defs><g id="49c9685dd8"><g clip-rule="nonzero" clip-path="url(#adf8472615)"><path style=" stroke:none;fill-rule:nonzero;fill:#ff6b00;fill-opacity:1;" d="M 30.105469 34.683594 L 5.894531 34.683594 C 4.179688 34.683594 2.597656 33.84375 1.636719 32.417969 C 0.675781 30.992188 0.488281 29.207031 1.121094 27.609375 L 3.714844 21.121094 C 4.503906 19.160156 6.375 17.890625 8.488281 17.890625 L 13.484375 17.890625 C 14.429688 17.890625 15.203125 18.664062 15.203125 19.609375 C 15.203125 20.550781 14.429688 21.324219 13.484375 21.324219 L 8.488281 21.324219 C 7.785156 21.324219 7.148438 21.753906 6.890625 22.40625 L 4.296875 28.898438 C 4.09375 29.429688 4.144531 30.03125 4.46875 30.492188 C 4.796875 30.957031 5.328125 31.25 5.894531 31.25 L 30.085938 31.25 C 30.65625 31.25 31.1875 30.976562 31.511719 30.492188 C 31.839844 30.011719 31.890625 29.429688 31.683594 28.898438 L 29.09375 22.40625 C 28.835938 21.753906 28.199219 21.324219 27.496094 21.324219 L 22.515625 21.324219 C 21.570312 21.324219 20.796875 20.550781 20.796875 19.609375 C 20.796875 18.664062 21.570312 17.890625 22.515625 17.890625 L 27.496094 17.890625 C 29.605469 17.890625 31.496094 19.160156 32.285156 21.136719 L 34.878906 27.625 C 35.511719 29.207031 35.324219 31.007812 34.363281 32.433594 C 33.402344 33.859375 31.804688 34.699219 30.105469 34.699219 Z M 30.105469 34.683594 "/></g><path style=" stroke:none;fill-rule:nonzero;fill:#ff6b00;fill-opacity:1;" d="M 18 15.898438 C 15.167969 15.898438 12.847656 13.582031 12.847656 10.75 C 12.847656 7.914062 15.167969 5.597656 18 5.597656 C 20.832031 5.597656 23.152344 7.914062 23.152344 10.75 C 23.152344 13.582031 20.832031 15.898438 18 15.898438 Z M 18 9.03125 C 17.054688 9.03125 16.28125 9.804688 16.28125 10.75 C 16.28125 11.691406 17.054688 12.464844 18 12.464844 C 18.945312 12.464844 19.71875 11.691406 19.71875 10.75 C 19.71875 9.804688 18.945312 9.03125 18 9.03125 Z M 18 9.03125 "/><path style=" stroke:none;fill-rule:nonzero;fill:#ff6b00;fill-opacity:1;" d="M 18.015625 26.097656 C 16.625 26.097656 15.320312 25.410156 14.53125 24.246094 L 13.792969 23.144531 C 11.871094 20.277344 9.621094 16.929688 9.464844 16.6875 C 8.246094 14.9375 7.59375 12.894531 7.59375 10.75 C 7.59375 5.015625 12.265625 0.34375 18 0.34375 C 23.734375 0.34375 28.40625 5.015625 28.40625 10.75 C 28.40625 12.894531 27.753906 14.9375 26.535156 16.6875 C 26.34375 16.945312 23.527344 21.1875 21.503906 24.246094 C 20.710938 25.410156 19.425781 26.097656 18.015625 26.117188 Z M 18.015625 3.777344 C 14.171875 3.777344 11.046875 6.902344 11.046875 10.75 C 11.046875 12.171875 11.476562 13.546875 12.300781 14.730469 C 12.4375 14.9375 14.71875 18.335938 16.660156 21.238281 L 17.398438 22.339844 C 17.535156 22.542969 17.777344 22.664062 18.035156 22.664062 C 18.292969 22.664062 18.53125 22.542969 18.667969 22.320312 C 20.710938 19.246094 23.5625 14.957031 23.734375 14.714844 C 24.558594 13.546875 24.988281 12.15625 24.988281 10.730469 C 24.988281 6.886719 21.863281 3.761719 18.015625 3.761719 Z M 18.015625 3.777344 "/><g clip-rule="nonzero" clip-path="url(#17d1adc1af)"><path style=" stroke:none;fill-rule:nonzero;fill:#000000;fill-opacity:1;" d="M 27.722656 20.59375 L 27.722656 19.621094 L 27.402344 19.90625 L 27.085938 20.652344 L 20.71875 21.207031 L 20.71875 21.210938 C 20.734375 21.261719 20.75 21.3125 20.761719 21.367188 C 20.855469 21.734375 20.902344 22.164062 20.902344 22.640625 C 20.902344 23.144531 20.800781 23.65625 20.609375 24.132812 L 21.324219 23.863281 C 21.300781 23.769531 21.285156 23.671875 21.285156 23.574219 C 21.285156 22.984375 21.757812 22.507812 22.335938 22.507812 C 22.539062 22.507812 22.726562 22.5625 22.898438 22.671875 C 23.070312 22.785156 23.203125 22.933594 23.289062 23.121094 L 23.96875 22.863281 C 23.949219 22.71875 23.976562 22.585938 24.050781 22.460938 C 24.125 22.339844 24.226562 22.253906 24.359375 22.203125 C 24.492188 22.152344 24.628906 22.148438 24.761719 22.191406 C 24.898438 22.238281 25.003906 22.320312 25.082031 22.4375 L 27.722656 21.441406 Z M 27.722656 20.59375 "/></g><path style=" stroke:none;fill-rule:nonzero;fill:#000000;fill-opacity:1;" d="M 22.335938 24.421875 C 22.453125 24.421875 22.566406 24.398438 22.671875 24.347656 C 22.777344 24.300781 22.871094 24.234375 22.949219 24.148438 C 23.03125 24.058594 23.089844 23.960938 23.125 23.847656 C 23.164062 23.734375 23.175781 23.621094 23.167969 23.503906 C 23.15625 23.382812 23.125 23.273438 23.070312 23.167969 C 23.011719 23.066406 22.9375 22.976562 22.847656 22.90625 C 22.753906 22.832031 22.652344 22.78125 22.539062 22.753906 C 22.425781 22.722656 22.3125 22.71875 22.195312 22.738281 C 22.082031 22.757812 21.976562 22.800781 21.878906 22.867188 C 21.78125 22.933594 21.699219 23.015625 21.636719 23.113281 C 21.574219 23.214844 21.53125 23.320312 21.511719 23.4375 C 21.496094 23.554688 21.5 23.671875 21.527344 23.785156 C 21.578125 23.972656 21.675781 24.125 21.828125 24.242188 C 21.976562 24.363281 22.148438 24.421875 22.335938 24.421875 Z M 21.8125 23.574219 C 21.8125 23.480469 21.835938 23.394531 21.878906 23.316406 C 21.921875 23.234375 21.984375 23.167969 22.058594 23.121094 C 22.136719 23.070312 22.222656 23.046875 22.3125 23.042969 C 22.402344 23.035156 22.488281 23.054688 22.570312 23.097656 C 22.652344 23.136719 22.71875 23.195312 22.769531 23.269531 C 22.820312 23.347656 22.851562 23.429688 22.859375 23.523438 C 22.867188 23.613281 22.855469 23.703125 22.816406 23.785156 C 22.78125 23.871094 22.726562 23.941406 22.65625 23.996094 C 22.582031 24.054688 22.503906 24.085938 22.414062 24.101562 C 22.324219 24.113281 22.234375 24.105469 22.148438 24.070312 C 22.066406 24.039062 21.992188 23.988281 21.933594 23.917969 C 21.878906 23.847656 21.839844 23.765625 21.820312 23.675781 C 21.816406 23.640625 21.8125 23.609375 21.8125 23.574219 Z M 21.8125 23.574219 "/><path style=" stroke:none;fill-rule:nonzero;fill:#000000;fill-opacity:1;" d="M 22.335938 23.886719 C 22.421875 23.886719 22.496094 23.855469 22.554688 23.796875 C 22.617188 23.734375 22.644531 23.660156 22.644531 23.574219 C 22.644531 23.488281 22.617188 23.414062 22.554688 23.351562 C 22.496094 23.289062 22.421875 23.261719 22.335938 23.261719 C 22.25 23.261719 22.179688 23.289062 22.117188 23.351562 C 22.058594 23.414062 22.027344 23.488281 22.027344 23.574219 C 22.027344 23.582031 22.027344 23.589844 22.03125 23.597656 C 22.035156 23.679688 22.066406 23.746094 22.128906 23.804688 C 22.1875 23.859375 22.257812 23.886719 22.335938 23.886719 Z M 22.335938 23.886719 "/><path style=" stroke:none;fill-rule:nonzero;fill:#000000;fill-opacity:1;" d="M 24.574219 23.1875 C 24.683594 23.1875 24.777344 23.148438 24.855469 23.070312 C 24.929688 22.992188 24.96875 22.894531 24.96875 22.785156 C 24.96875 22.675781 24.933594 22.578125 24.855469 22.5 C 24.777344 22.421875 24.683594 22.382812 24.574219 22.382812 C 24.464844 22.382812 24.375 22.421875 24.296875 22.5 C 24.21875 22.578125 24.179688 22.671875 24.179688 22.78125 L 24.179688 22.785156 C 24.179688 22.894531 24.21875 22.988281 24.292969 23.070312 C 24.371094 23.148438 24.464844 23.1875 24.574219 23.1875 Z M 24.574219 23.1875 "/><g clip-rule="nonzero" clip-path="url(#20cd7cc2e6)"><path style=" stroke:none;fill-rule:nonzero;fill:#000000;fill-opacity:1;" d="M 15.140625 24.132812 C 14.953125 23.65625 14.851562 23.144531 14.851562 22.640625 C 14.851562 22.085938 14.910156 21.609375 15.023438 21.207031 L 8.667969 20.652344 L 8.347656 19.90625 L 8.03125 19.621094 L 8.03125 21.441406 L 10.671875 22.441406 C 10.75 22.320312 10.855469 22.238281 10.992188 22.195312 C 11.125 22.148438 11.261719 22.152344 11.394531 22.203125 C 11.527344 22.253906 11.628906 22.339844 11.703125 22.464844 C 11.777344 22.585938 11.804688 22.71875 11.785156 22.863281 L 12.464844 23.121094 C 12.550781 22.933594 12.679688 22.785156 12.851562 22.671875 C 13.023438 22.5625 13.210938 22.507812 13.414062 22.507812 C 13.996094 22.507812 14.46875 22.984375 14.46875 23.574219 C 14.46875 23.671875 14.453125 23.769531 14.425781 23.863281 Z M 15.140625 24.132812 "/></g><path style=" stroke:none;fill-rule:nonzero;fill:#000000;fill-opacity:1;" d="M 13.414062 22.726562 C 13.183594 22.726562 12.988281 22.808594 12.824219 22.972656 C 12.660156 23.140625 12.582031 23.339844 12.582031 23.574219 C 12.582031 23.808594 12.660156 24.007812 12.824219 24.175781 C 12.988281 24.339844 13.183594 24.421875 13.414062 24.421875 C 13.644531 24.421875 13.84375 24.339844 14.007812 24.171875 C 14.167969 24.007812 14.25 23.808594 14.25 23.574219 C 14.25 23.339844 14.167969 23.140625 14.003906 22.972656 C 13.84375 22.808594 13.644531 22.726562 13.414062 22.726562 Z M 13.414062 24.105469 C 13.265625 24.105469 13.136719 24.050781 13.03125 23.9375 C 12.929688 23.824219 12.882812 23.691406 12.890625 23.539062 C 12.902344 23.386719 12.964844 23.261719 13.082031 23.164062 C 13.199219 23.066406 13.332031 23.027344 13.484375 23.046875 C 13.632812 23.066406 13.753906 23.136719 13.839844 23.261719 C 13.929688 23.386719 13.960938 23.523438 13.929688 23.675781 C 13.90625 23.800781 13.847656 23.902344 13.75 23.984375 C 13.652344 24.066406 13.542969 24.105469 13.414062 24.105469 Z M 13.414062 24.105469 "/><path style=" stroke:none;fill-rule:nonzero;fill:#000000;fill-opacity:1;" d="M 13.414062 23.261719 C 13.332031 23.261719 13.261719 23.289062 13.199219 23.347656 C 13.140625 23.410156 13.109375 23.480469 13.109375 23.566406 C 13.105469 23.652344 13.132812 23.722656 13.191406 23.785156 C 13.246094 23.847656 13.316406 23.882812 13.402344 23.886719 C 13.484375 23.890625 13.558594 23.863281 13.621094 23.808594 C 13.683594 23.75 13.71875 23.679688 13.722656 23.597656 C 13.722656 23.589844 13.722656 23.582031 13.722656 23.574219 C 13.722656 23.488281 13.695312 23.414062 13.632812 23.351562 C 13.574219 23.292969 13.5 23.261719 13.414062 23.261719 Z M 13.414062 23.261719 "/><path style=" stroke:none;fill-rule:nonzero;fill:#000000;fill-opacity:1;" d="M 11.574219 22.785156 L 11.574219 22.78125 C 11.574219 22.710938 11.554688 22.644531 11.519531 22.582031 C 11.484375 22.519531 11.4375 22.46875 11.375 22.433594 C 11.3125 22.398438 11.246094 22.378906 11.175781 22.378906 C 11.105469 22.378906 11.039062 22.398438 10.980469 22.433594 C 10.917969 22.472656 10.871094 22.519531 10.835938 22.582031 C 10.796875 22.644531 10.78125 22.710938 10.78125 22.785156 C 10.78125 22.855469 10.796875 22.921875 10.835938 22.984375 C 10.871094 23.046875 10.917969 23.097656 10.980469 23.132812 C 11.039062 23.167969 11.105469 23.1875 11.175781 23.1875 C 11.246094 23.1875 11.3125 23.167969 11.375 23.132812 C 11.4375 23.097656 11.484375 23.046875 11.519531 22.984375 C 11.554688 22.921875 11.574219 22.855469 11.574219 22.785156 Z M 11.574219 22.785156 "/><path style=" stroke:none;fill-rule:nonzero;fill:#000000;fill-opacity:1;" d="M 17.769531 21.820312 C 17.175781 21.8125 16.585938 21.742188 16.007812 21.605469 L 15.722656 22.769531 C 16.0625 23.027344 16.742188 23.40625 17.769531 23.433594 Z M 17.769531 21.820312 "/><path style=" stroke:none;fill-rule:nonzero;fill:#000000;fill-opacity:1;" d="M 19.746094 21.605469 C 19.164062 21.742188 18.578125 21.8125 17.984375 21.820312 L 17.984375 23.433594 C 19.039062 23.40625 19.730469 22.992188 20.03125 22.769531 Z M 19.746094 21.605469 "/><g clip-rule="nonzero" clip-path="url(#8e6c2e6330)"><path style=" stroke:none;fill-rule:nonzero;fill:#000000;fill-opacity:1;" d="M 15.421875 24.242188 C 15.550781 24.523438 15.710938 24.785156 15.898438 25.03125 C 16.445312 25.730469 17.148438 26.117188 17.875 26.117188 C 18.605469 26.117188 19.304688 25.730469 19.855469 25.03125 C 20.042969 24.785156 20.203125 24.523438 20.332031 24.242188 C 20.558594 23.734375 20.683594 23.183594 20.683594 22.640625 C 20.683594 22.253906 20.652344 21.90625 20.59375 21.59375 C 20.5 21.128906 20.339844 20.746094 20.105469 20.441406 C 19.808594 20.050781 19.386719 19.789062 18.84375 19.652344 L 19.019531 19.585938 L 19.183594 19.523438 L 20.515625 19.019531 L 20.515625 18.59375 L 18.480469 18.59375 L 18.1875 16.785156 L 17.566406 16.785156 L 17.273438 18.59375 L 15.238281 18.59375 L 15.238281 19.019531 L 16.558594 19.519531 L 16.722656 19.582031 L 16.898438 19.648438 C 16.34375 19.78125 15.925781 20.042969 15.625 20.441406 C 15.402344 20.738281 15.246094 21.117188 15.15625 21.585938 C 15.097656 21.894531 15.066406 22.246094 15.066406 22.640625 C 15.066406 23.183594 15.191406 23.734375 15.421875 24.238281 Z M 15.851562 21.339844 L 15.957031 21.367188 C 16.570312 21.519531 17.195312 21.597656 17.828125 21.601562 C 18.492188 21.605469 19.148438 21.527344 19.796875 21.367188 L 19.902344 21.339844 L 20.230469 22.683594 L 20.273438 22.855469 L 20.21875 22.898438 C 20.195312 22.921875 20.167969 22.941406 20.140625 22.960938 C 19.933594 23.113281 19.691406 23.246094 19.433594 23.355469 C 18.957031 23.550781 18.433594 23.652344 17.878906 23.652344 L 17.832031 23.652344 C 17.28125 23.648438 16.765625 23.542969 16.292969 23.34375 C 16.050781 23.242188 15.824219 23.117188 15.609375 22.960938 C 15.582031 22.941406 15.558594 22.921875 15.53125 22.902344 L 15.476562 22.855469 L 15.519531 22.683594 Z M 15.851562 21.339844 "/></g><g clip-rule="nonzero" clip-path="url(#4ab3b863a9)"><path style=" stroke:none;fill-rule:nonzero;fill:#000000;fill-opacity:1;" d="M 18.914062 30.417969 C 18.914062 30.523438 18.867188 30.59375 18.765625 30.625 C 18.667969 30.660156 18.585938 30.632812 18.523438 30.546875 L 17.875 29.65625 L 17.226562 30.546875 C 17.167969 30.632812 17.085938 30.660156 16.988281 30.628906 C 16.886719 30.59375 16.835938 30.523438 16.835938 30.417969 L 16.835938 27.269531 L 14.539062 27.269531 L 14.539062 33.566406 L 16.855469 33.566406 L 16.855469 32.542969 C 16.855469 32.394531 16.925781 32.324219 17.070312 32.324219 L 18.679688 32.324219 C 18.824219 32.324219 18.898438 32.394531 18.898438 32.542969 L 18.898438 33.566406 L 21.214844 33.566406 L 21.214844 27.269531 L 18.914062 27.269531 Z M 18.914062 30.417969 "/></g><path style=" stroke:none;fill-rule:nonzero;fill:#000000;fill-opacity:1;" d="M 17.054688 30.417969 L 17.875 29.289062 L 18.699219 30.417969 L 18.699219 27.269531 L 17.054688 27.269531 Z M 17.054688 30.417969 "/><g clip-rule="nonzero" clip-path="url(#7241de07e5)"><path style=" stroke:none;fill-rule:nonzero;fill:#000000;fill-opacity:1;" d="M 17.070312 32.542969 L 18.679688 32.542969 L 18.679688 33.566406 L 17.070312 33.566406 Z M 17.070312 32.542969 "/></g><g clip-rule="nonzero" clip-path="url(#5fc34ce9d9)"><path style=" stroke:none;fill-rule:nonzero;fill:#000000;fill-opacity:1;" d="M 24.335938 31.636719 C 24.335938 31.742188 24.285156 31.8125 24.1875 31.84375 C 24.089844 31.878906 24.007812 31.851562 23.945312 31.765625 L 23.617188 31.3125 L 23.285156 31.765625 C 23.222656 31.851562 23.144531 31.878906 23.042969 31.84375 C 22.945312 31.8125 22.894531 31.742188 22.894531 31.636719 L 22.894531 29.707031 L 21.570312 29.707031 L 21.570312 33.566406 L 22.90625 33.566406 L 22.90625 32.9375 C 22.90625 32.792969 22.976562 32.71875 23.121094 32.71875 L 24.109375 32.71875 C 24.253906 32.71875 24.324219 32.792969 24.324219 32.9375 L 24.324219 33.566406 L 25.664062 33.566406 L 25.664062 29.707031 L 24.335938 29.707031 Z M 24.335938 31.636719 "/></g><path style=" stroke:none;fill-rule:nonzero;fill:#000000;fill-opacity:1;" d="M 23.617188 30.941406 L 24.121094 31.636719 L 24.121094 29.707031 L 23.113281 29.707031 L 23.113281 31.636719 Z M 23.617188 30.941406 "/><g clip-rule="nonzero" clip-path="url(#d601b2ed44)"><path style=" stroke:none;fill-rule:nonzero;fill:#000000;fill-opacity:1;" d="M 23.121094 32.9375 L 24.109375 32.9375 L 24.109375 33.566406 L 23.121094 33.566406 Z M 23.121094 32.9375 "/></g><g clip-rule="nonzero" clip-path="url(#9bb148d6c1)"><path style=" stroke:none;fill-rule:nonzero;fill:#000000;fill-opacity:1;" d="M 12.878906 31.636719 C 12.875 31.742188 12.828125 31.8125 12.726562 31.84375 C 12.628906 31.878906 12.546875 31.851562 12.488281 31.765625 L 12.15625 31.3125 L 11.828125 31.765625 C 11.765625 31.851562 11.683594 31.878906 11.585938 31.84375 C 11.484375 31.8125 11.4375 31.742188 11.4375 31.636719 L 11.4375 29.707031 L 10.109375 29.707031 L 10.109375 33.566406 L 11.445312 33.566406 L 11.445312 32.9375 C 11.445312 32.792969 11.519531 32.71875 11.664062 32.71875 L 12.648438 32.71875 C 12.792969 32.71875 12.867188 32.792969 12.867188 32.9375 L 12.867188 33.566406 L 14.203125 33.566406 L 14.203125 29.707031 L 12.878906 29.707031 Z M 12.878906 31.636719 "/></g><path style=" stroke:none;fill-rule:nonzero;fill:#000000;fill-opacity:1;" d="M 12.660156 31.636719 L 12.660156 29.707031 L 11.652344 29.707031 L 11.652344 31.636719 L 12.15625 30.941406 Z M 12.660156 31.636719 "/><g clip-rule="nonzero" clip-path="url(#b69a7e6ab7)"><path style=" stroke:none;fill-rule:nonzero;fill:#000000;fill-opacity:1;" d="M 11.664062 32.9375 L 12.648438 32.9375 L 12.648438 33.566406 L 11.664062 33.566406 Z M 11.664062 32.9375 "/></g></g></svg>