<svg xmlns="http://www.w3.org/2000/svg" xmlns:xlink="http://www.w3.org/1999/xlink" width="48" zoomAndPan="magnify" viewBox="0 0 36 36.000001" height="48" preserveAspectRatio="xMidYMid meet" version="1.2"><defs><clipPath id="21b926bcb4"><path d="M 0.488281 17 L 35.511719 17 L 35.511719 35 L 0.488281 35 Z M 0.488281 17 "/></clipPath><clipPath id="60b3963c86"><path d="M 25 29 L 30 29 L 30 33.875 L 25 33.875 Z M 25 29 "/></clipPath><clipPath id="910e7fdb59"><path d="M 16 29 L 21 29 L 21 33.875 L 16 33.875 Z M 16 29 "/></clipPath><clipPath id="1548298759"><path d="M 6.914062 28 L 23 28 L 23 31 L 6.914062 31 Z M 6.914062 28 "/></clipPath><clipPath id="57e53e3d7b"><path d="M 8 29 L 13 29 L 13 33.875 L 8 33.875 Z M 8 29 "/></clipPath><clipPath id="1f89a8bfba"><path d="M 23 23 L 30.996094 23 L 30.996094 31 L 23 31 Z M 23 23 "/></clipPath><clipPath id="8adfd15a67"><path d="M 6.914062 18.550781 L 23 18.550781 L 23 28 L 6.914062 28 Z M 6.914062 18.550781 "/></clipPath><clipPath id="18ca1de731"><path d="M 26 23 L 30.996094 23 L 30.996094 27 L 26 27 Z M 26 23 "/></clipPath></defs><g id="eae2a44296"><g clip-rule="nonzero" clip-path="url(#21b926bcb4)"><path style=" stroke:none;fill-rule:nonzero;fill:#ff6b00;fill-opacity:1;" d="M 30.105469 34.683594 L 5.894531 34.683594 C 4.179688 34.683594 2.597656 33.84375 1.636719 32.417969 C 0.675781 30.992188 0.488281 29.207031 1.121094 27.609375 L 3.714844 21.121094 C 4.503906 19.160156 6.375 17.890625 8.488281 17.890625 L 13.484375 17.890625 C 14.429688 17.890625 15.203125 18.664062 15.203125 19.609375 C 15.203125 20.550781 14.429688 21.324219 13.484375 21.324219 L 8.488281 21.324219 C 7.785156 21.324219 7.148438 21.753906 6.890625 22.40625 L 4.296875 28.898438 C 4.09375 29.429688 4.144531 30.03125 4.46875 30.492188 C 4.796875 30.957031 5.328125 31.25 5.894531 31.25 L 30.085938 31.25 C 30.65625 31.25 31.1875 30.976562 31.511719 30.492188 C 31.839844 30.011719 31.890625 29.429688 31.683594 28.898438 L 29.09375 22.40625 C 28.835938 21.753906 28.199219 21.324219 27.496094 21.324219 L 22.515625 21.324219 C 21.570312 21.324219 20.796875 20.550781 20.796875 19.609375 C 20.796875 18.664062 21.570312 17.890625 22.515625 17.890625 L 27.496094 17.890625 C 29.605469 17.890625 31.496094 19.160156 32.285156 21.136719 L 34.878906 27.625 C 35.511719 29.207031 35.324219 31.007812 34.363281 32.433594 C 33.402344 33.859375 31.804688 34.699219 30.105469 34.699219 Z M 30.105469 34.683594 "/></g><path style=" stroke:none;fill-rule:nonzero;fill:#ff6b00;fill-opacity:1;" d="M 18 15.898438 C 15.167969 15.898438 12.847656 13.582031 12.847656 10.75 C 12.847656 7.914062 15.167969 5.597656 18 5.597656 C 20.832031 5.597656 23.152344 7.914062 23.152344 10.75 C 23.152344 13.582031 20.832031 15.898438 18 15.898438 Z M 18 9.03125 C 17.054688 9.03125 16.28125 9.804688 16.28125 10.75 C 16.28125 11.691406 17.054688 12.464844 18 12.464844 C 18.945312 12.464844 19.71875 11.691406 19.71875 10.75 C 19.71875 9.804688 18.945312 9.03125 18 9.03125 Z M 18 9.03125 "/><path style=" stroke:none;fill-rule:nonzero;fill:#ff6b00;fill-opacity:1;" d="M 18.015625 26.097656 C 16.625 26.097656 15.320312 25.410156 14.53125 24.246094 L 13.792969 23.144531 C 11.871094 20.277344 9.621094 16.929688 9.464844 16.6875 C 8.246094 14.9375 7.59375 12.894531 7.59375 10.75 C 7.59375 5.015625 12.265625 0.34375 18 0.34375 C 23.734375 0.34375 28.40625 5.015625 28.40625 10.75 C 28.40625 12.894531 27.753906 14.9375 26.535156 16.6875 C 26.34375 16.945312 23.527344 21.1875 21.503906 24.246094 C 20.710938 25.410156 19.425781 26.097656 18.015625 26.117188 Z M 18.015625 3.777344 C 14.171875 3.777344 11.046875 6.902344 11.046875 10.75 C 11.046875 12.171875 11.476562 13.546875 12.300781 14.730469 C 12.4375 14.9375 14.71875 18.335938 16.660156 21.238281 L 17.398438 22.339844 C 17.535156 22.542969 17.777344 22.664062 18.035156 22.664062 C 18.292969 22.664062 18.53125 22.542969 18.667969 22.320312 C 20.710938 19.246094 23.5625 14.957031 23.734375 14.714844 C 24.558594 13.546875 24.988281 12.15625 24.988281 10.730469 C 24.988281 6.886719 21.863281 3.761719 18.015625 3.761719 Z M 18.015625 3.777344 "/><path style=" stroke:none;fill-rule:nonzero;fill:#000000;fill-opacity:1;" d="M 10.074219 31.125 C 9.699219 31.125 9.398438 31.429688 9.398438 31.800781 C 9.398438 32.175781 9.699219 32.480469 10.074219 32.480469 C 10.445312 32.480469 10.75 32.175781 10.75 31.800781 C 10.75 31.429688 10.445312 31.125 10.074219 31.125 Z M 10.074219 31.125 "/><path style=" stroke:none;fill-rule:nonzero;fill:#000000;fill-opacity:1;" d="M 18.539062 31.125 C 18.167969 31.125 17.863281 31.429688 17.863281 31.800781 C 17.863281 32.175781 18.167969 32.480469 18.539062 32.480469 C 18.910156 32.480469 19.214844 32.175781 19.214844 31.800781 C 19.214844 31.429688 18.914062 31.125 18.539062 31.125 Z M 18.539062 31.125 "/><g clip-rule="nonzero" clip-path="url(#60b3963c86)"><path style=" stroke:none;fill-rule:nonzero;fill:#000000;fill-opacity:1;" d="M 27.117188 29.738281 C 25.984375 29.738281 25.058594 30.664062 25.058594 31.800781 C 25.058594 32.941406 25.984375 33.867188 27.117188 33.867188 C 28.253906 33.867188 29.175781 32.941406 29.175781 31.800781 C 29.175781 30.664062 28.253906 29.738281 27.117188 29.738281 Z M 27.117188 32.941406 C 26.492188 32.941406 25.980469 32.429688 25.980469 31.800781 C 25.980469 31.171875 26.492188 30.664062 27.117188 30.664062 C 27.746094 30.664062 28.253906 31.171875 28.253906 31.800781 C 28.253906 32.429688 27.746094 32.941406 27.117188 32.941406 Z M 27.117188 32.941406 "/></g><path style=" stroke:none;fill-rule:nonzero;fill:#000000;fill-opacity:1;" d="M 20.945312 20.332031 L 21.5 20.332031 L 21.5 25.65625 L 20.945312 25.65625 Z M 20.945312 20.332031 "/><path style=" stroke:none;fill-rule:nonzero;fill:#000000;fill-opacity:1;" d="M 27.792969 31.800781 C 27.792969 31.988281 27.726562 32.148438 27.597656 32.28125 C 27.464844 32.414062 27.304688 32.480469 27.117188 32.480469 C 26.929688 32.480469 26.769531 32.414062 26.640625 32.28125 C 26.507812 32.148438 26.441406 31.988281 26.441406 31.800781 C 26.441406 31.613281 26.507812 31.457031 26.640625 31.324219 C 26.769531 31.191406 26.929688 31.125 27.117188 31.125 C 27.304688 31.125 27.464844 31.191406 27.597656 31.324219 C 27.726562 31.457031 27.792969 31.613281 27.792969 31.800781 Z M 27.792969 31.800781 "/><g clip-rule="nonzero" clip-path="url(#910e7fdb59)"><path style=" stroke:none;fill-rule:nonzero;fill:#000000;fill-opacity:1;" d="M 18.539062 29.738281 C 17.40625 29.738281 16.480469 30.664062 16.480469 31.800781 C 16.480469 32.941406 17.40625 33.867188 18.539062 33.867188 C 19.675781 33.867188 20.597656 32.941406 20.597656 31.800781 C 20.597656 30.664062 19.675781 29.738281 18.539062 29.738281 Z M 18.539062 32.941406 C 17.914062 32.941406 17.402344 32.429688 17.402344 31.800781 C 17.402344 31.171875 17.914062 30.664062 18.539062 30.664062 C 19.167969 30.664062 19.675781 31.171875 19.675781 31.800781 C 19.675781 32.429688 19.167969 32.941406 18.539062 32.941406 Z M 18.539062 32.941406 "/></g><g clip-rule="nonzero" clip-path="url(#1548298759)"><path style=" stroke:none;fill-rule:nonzero;fill:#000000;fill-opacity:1;" d="M 6.941406 30.421875 L 7.96875 30.421875 C 8.417969 29.734375 9.195312 29.277344 10.074219 29.277344 C 10.953125 29.277344 11.726562 29.734375 12.179688 30.421875 L 16.433594 30.421875 C 16.882812 29.734375 17.660156 29.277344 18.539062 29.277344 C 19.417969 29.277344 20.195312 29.734375 20.644531 30.421875 L 22.808594 30.421875 L 22.808594 28.125 L 6.941406 28.125 Z M 6.941406 30.421875 "/></g><g clip-rule="nonzero" clip-path="url(#57e53e3d7b)"><path style=" stroke:none;fill-rule:nonzero;fill:#000000;fill-opacity:1;" d="M 10.074219 29.738281 C 8.9375 29.738281 8.015625 30.664062 8.015625 31.800781 C 8.015625 32.941406 8.9375 33.867188 10.074219 33.867188 C 11.207031 33.867188 12.132812 32.941406 12.132812 31.800781 C 12.132812 30.664062 11.207031 29.738281 10.074219 29.738281 Z M 10.074219 32.941406 C 9.445312 32.941406 8.9375 32.429688 8.9375 31.800781 C 8.9375 31.171875 9.445312 30.664062 10.074219 30.664062 C 10.699219 30.664062 11.210938 31.171875 11.210938 31.800781 C 11.210938 32.429688 10.699219 32.941406 10.074219 32.941406 Z M 10.074219 32.941406 "/></g><g clip-rule="nonzero" clip-path="url(#1f89a8bfba)"><path style=" stroke:none;fill-rule:nonzero;fill:#000000;fill-opacity:1;" d="M 25.945312 26.761719 L 25.945312 23.105469 L 23.269531 23.105469 L 23.269531 30.421875 L 25.011719 30.421875 C 25.460938 29.734375 26.238281 29.277344 27.117188 29.277344 C 27.996094 29.277344 28.773438 29.734375 29.222656 30.421875 L 30.96875 30.421875 L 30.96875 26.992188 L 26.175781 26.992188 C 26.046875 26.992188 25.945312 26.890625 25.945312 26.761719 Z M 26.785156 28.183594 C 26.785156 28.3125 26.679688 28.414062 26.554688 28.414062 L 25.832031 28.414062 C 25.707031 28.414062 25.601562 28.3125 25.601562 28.183594 C 25.601562 28.058594 25.707031 27.953125 25.832031 27.953125 L 26.554688 27.953125 C 26.679688 27.953125 26.785156 28.058594 26.785156 28.183594 Z M 26.785156 28.183594 "/></g><g clip-rule="nonzero" clip-path="url(#8adfd15a67)"><path style=" stroke:none;fill-rule:nonzero;fill:#000000;fill-opacity:1;" d="M 6.941406 27.664062 L 22.808594 27.664062 L 22.808594 18.558594 L 6.941406 18.558594 Z M 20.484375 20.101562 C 20.484375 19.972656 20.589844 19.871094 20.714844 19.871094 L 21.730469 19.871094 C 21.859375 19.871094 21.960938 19.972656 21.960938 20.101562 L 21.960938 25.886719 C 21.960938 26.011719 21.859375 26.117188 21.730469 26.117188 L 20.714844 26.117188 C 20.589844 26.117188 20.484375 26.011719 20.484375 25.886719 Z M 17.90625 20.101562 C 17.90625 19.972656 18.007812 19.871094 18.136719 19.871094 L 19.152344 19.871094 C 19.277344 19.871094 19.382812 19.972656 19.382812 20.101562 L 19.382812 25.886719 C 19.382812 26.011719 19.277344 26.117188 19.152344 26.117188 L 18.136719 26.117188 C 18.007812 26.117188 17.90625 26.011719 17.90625 25.886719 Z M 15.324219 20.101562 C 15.324219 19.972656 15.429688 19.871094 15.554688 19.871094 L 16.570312 19.871094 C 16.699219 19.871094 16.800781 19.972656 16.800781 20.101562 L 16.800781 25.886719 C 16.800781 26.011719 16.699219 26.117188 16.570312 26.117188 L 15.554688 26.117188 C 15.429688 26.117188 15.324219 26.011719 15.324219 25.886719 Z M 12.746094 20.101562 C 12.746094 19.972656 12.847656 19.871094 12.976562 19.871094 L 13.992188 19.871094 C 14.117188 19.871094 14.222656 19.972656 14.222656 20.101562 L 14.222656 25.886719 C 14.222656 26.011719 14.117188 26.117188 13.992188 26.117188 L 12.976562 26.117188 C 12.847656 26.117188 12.746094 26.011719 12.746094 25.886719 Z M 10.164062 20.101562 C 10.164062 19.972656 10.269531 19.871094 10.394531 19.871094 L 11.410156 19.871094 C 11.539062 19.871094 11.640625 19.972656 11.640625 20.101562 L 11.640625 25.886719 C 11.640625 26.011719 11.539062 26.117188 11.410156 26.117188 L 10.394531 26.117188 C 10.269531 26.117188 10.164062 26.011719 10.164062 25.886719 Z M 7.585938 20.101562 C 7.585938 19.972656 7.6875 19.871094 7.816406 19.871094 L 8.832031 19.871094 C 8.957031 19.871094 9.0625 19.972656 9.0625 20.101562 L 9.0625 25.886719 C 9.0625 26.011719 8.957031 26.117188 8.832031 26.117188 L 7.816406 26.117188 C 7.6875 26.117188 7.585938 26.011719 7.585938 25.886719 Z M 7.585938 20.101562 "/></g><path style=" stroke:none;fill-rule:nonzero;fill:#000000;fill-opacity:1;" d="M 18.367188 20.332031 L 18.921875 20.332031 L 18.921875 25.65625 L 18.367188 25.65625 Z M 18.367188 20.332031 "/><path style=" stroke:none;fill-rule:nonzero;fill:#000000;fill-opacity:1;" d="M 15.785156 20.332031 L 16.339844 20.332031 L 16.339844 25.65625 L 15.785156 25.65625 Z M 15.785156 20.332031 "/><path style=" stroke:none;fill-rule:nonzero;fill:#000000;fill-opacity:1;" d="M 13.207031 20.332031 L 13.761719 20.332031 L 13.761719 25.65625 L 13.207031 25.65625 Z M 13.207031 20.332031 "/><path style=" stroke:none;fill-rule:nonzero;fill:#000000;fill-opacity:1;" d="M 8.046875 20.332031 L 8.601562 20.332031 L 8.601562 25.65625 L 8.046875 25.65625 Z M 8.046875 20.332031 "/><g clip-rule="nonzero" clip-path="url(#18ca1de731)"><path style=" stroke:none;fill-rule:nonzero;fill:#000000;fill-opacity:1;" d="M 26.40625 23.105469 L 26.40625 26.53125 L 30.96875 26.53125 L 30.96875 25.597656 L 28.9375 23.105469 Z M 26.40625 23.105469 "/></g><path style=" stroke:none;fill-rule:nonzero;fill:#000000;fill-opacity:1;" d="M 10.625 20.332031 L 11.179688 20.332031 L 11.179688 25.65625 L 10.625 25.65625 Z M 10.625 20.332031 "/></g></svg>