<svg xmlns="http://www.w3.org/2000/svg" xmlns:xlink="http://www.w3.org/1999/xlink" width="48" zoomAndPan="magnify" viewBox="0 0 36 36.000001" height="48" preserveAspectRatio="xMidYMid meet" version="1.2"><defs><clipPath id="7a2c8f1640"><path d="M 0.488281 17 L 35.511719 17 L 35.511719 35 L 0.488281 35 Z M 0.488281 17 "/></clipPath><clipPath id="fbf818a306"><path d="M 2.414062 29 L 20.65625 29 L 20.65625 33.613281 L 2.414062 33.613281 Z M 2.414062 29 "/></clipPath><clipPath id="feb922594e"><path d="M 4 25.585938 L 8 25.585938 L 8 28 L 4 28 Z M 4 25.585938 "/></clipPath><clipPath id="fd9826717f"><path d="M 19.613281 24.875 L 33.476562 24.875 L 33.476562 34.363281 L 19.613281 34.363281 Z M 19.613281 24.875 "/></clipPath><clipPath id="95da5ef7aa"><path d="M 8.074219 16.28125 L 24.859375 16.28125 L 24.859375 27.957031 L 8.074219 27.957031 Z M 8.074219 16.28125 "/></clipPath></defs><g id="5c40c1f462"><g clip-rule="nonzero" clip-path="url(#7a2c8f1640)"><path style=" stroke:none;fill-rule:nonzero;fill:#ff6b00;fill-opacity:1;" d="M 30.105469 34.683594 L 5.894531 34.683594 C 4.179688 34.683594 2.597656 33.84375 1.636719 32.417969 C 0.675781 30.992188 0.488281 29.207031 1.121094 27.609375 L 3.714844 21.121094 C 4.503906 19.160156 6.375 17.890625 8.488281 17.890625 L 13.484375 17.890625 C 14.429688 17.890625 15.203125 18.664062 15.203125 19.609375 C 15.203125 20.550781 14.429688 21.324219 13.484375 21.324219 L 8.488281 21.324219 C 7.785156 21.324219 7.148438 21.753906 6.890625 22.40625 L 4.296875 28.898438 C 4.09375 29.429688 4.144531 30.03125 4.46875 30.492188 C 4.796875 30.957031 5.328125 31.25 5.894531 31.25 L 30.085938 31.25 C 30.65625 31.25 31.1875 30.976562 31.511719 30.492188 C 31.839844 30.011719 31.890625 29.429688 31.683594 28.898438 L 29.09375 22.40625 C 28.835938 21.753906 28.199219 21.324219 27.496094 21.324219 L 22.515625 21.324219 C 21.570312 21.324219 20.796875 20.550781 20.796875 19.609375 C 20.796875 18.664062 21.570312 17.890625 22.515625 17.890625 L 27.496094 17.890625 C 29.605469 17.890625 31.496094 19.160156 32.285156 21.136719 L 34.878906 27.625 C 35.511719 29.207031 35.324219 31.007812 34.363281 32.433594 C 33.402344 33.859375 31.804688 34.699219 30.105469 34.699219 Z M 30.105469 34.683594 "/></g><path style=" stroke:none;fill-rule:nonzero;fill:#ff6b00;fill-opacity:1;" d="M 18 15.898438 C 15.167969 15.898438 12.847656 13.582031 12.847656 10.75 C 12.847656 7.914062 15.167969 5.597656 18 5.597656 C 20.832031 5.597656 23.152344 7.914062 23.152344 10.75 C 23.152344 13.582031 20.832031 15.898438 18 15.898438 Z M 18 9.03125 C 17.054688 9.03125 16.28125 9.804688 16.28125 10.75 C 16.28125 11.691406 17.054688 12.464844 18 12.464844 C 18.945312 12.464844 19.71875 11.691406 19.71875 10.75 C 19.71875 9.804688 18.945312 9.03125 18 9.03125 Z M 18 9.03125 "/><path style=" stroke:none;fill-rule:nonzero;fill:#ff6b00;fill-opacity:1;" d="M 18.015625 26.097656 C 16.625 26.097656 15.320312 25.410156 14.53125 24.246094 L 13.792969 23.144531 C 11.871094 20.277344 9.621094 16.929688 9.464844 16.6875 C 8.246094 14.9375 7.59375 12.894531 7.59375 10.75 C 7.59375 5.015625 12.265625 0.34375 18 0.34375 C 23.734375 0.34375 28.40625 5.015625 28.40625 10.75 C 28.40625 12.894531 27.753906 14.9375 26.535156 16.6875 C 26.34375 16.945312 23.527344 21.1875 21.503906 24.246094 C 20.710938 25.410156 19.425781 26.097656 18.015625 26.117188 Z M 18.015625 3.777344 C 14.171875 3.777344 11.046875 6.902344 11.046875 10.75 C 11.046875 12.171875 11.476562 13.546875 12.300781 14.730469 C 12.4375 14.9375 14.71875 18.335938 16.660156 21.238281 L 17.398438 22.339844 C 17.535156 22.542969 17.777344 22.664062 18.035156 22.664062 C 18.292969 22.664062 18.53125 22.542969 18.667969 22.320312 C 20.710938 19.246094 23.5625 14.957031 23.734375 14.714844 C 24.558594 13.546875 24.988281 12.15625 24.988281 10.730469 C 24.988281 6.886719 21.863281 3.761719 18.015625 3.761719 Z M 18.015625 3.777344 "/><g clip-rule="nonzero" clip-path="url(#fbf818a306)"><path style=" stroke:none;fill-rule:nonzero;fill:#040606;fill-opacity:1;" d="M 14.277344 31.867188 C 14.152344 31.867188 14.050781 31.765625 14.050781 31.640625 C 14.050781 31.515625 14.152344 31.417969 14.277344 31.417969 C 14.398438 31.417969 14.5 31.515625 14.5 31.640625 C 14.5 31.765625 14.398438 31.867188 14.277344 31.867188 Z M 12.988281 31.867188 C 12.863281 31.867188 12.761719 31.765625 12.761719 31.640625 C 12.761719 31.515625 12.863281 31.417969 12.988281 31.417969 C 13.109375 31.417969 13.210938 31.515625 13.210938 31.640625 C 13.210938 31.765625 13.109375 31.867188 12.988281 31.867188 Z M 11.699219 31.867188 C 11.574219 31.867188 11.476562 31.765625 11.476562 31.640625 C 11.476562 31.515625 11.574219 31.417969 11.699219 31.417969 C 11.824219 31.417969 11.921875 31.515625 11.921875 31.640625 C 11.921875 31.765625 11.824219 31.867188 11.699219 31.867188 Z M 10.410156 31.867188 C 10.285156 31.867188 10.1875 31.765625 10.1875 31.640625 C 10.1875 31.515625 10.285156 31.417969 10.410156 31.417969 C 10.535156 31.417969 10.632812 31.515625 10.632812 31.640625 C 10.632812 31.765625 10.535156 31.867188 10.410156 31.867188 Z M 9.121094 31.867188 C 9 31.867188 8.898438 31.765625 8.898438 31.640625 C 8.898438 31.515625 9 31.417969 9.121094 31.417969 C 9.246094 31.417969 9.347656 31.515625 9.347656 31.640625 C 9.347656 31.765625 9.246094 31.867188 9.121094 31.867188 Z M 7.832031 31.867188 C 7.710938 31.867188 7.609375 31.765625 7.609375 31.640625 C 7.609375 31.515625 7.710938 31.417969 7.832031 31.417969 C 7.957031 31.417969 8.058594 31.515625 8.058594 31.640625 C 8.058594 31.765625 7.957031 31.867188 7.832031 31.867188 Z M 18.574219 30.382812 L 18.574219 30 L 20.191406 30 C 20.253906 29.800781 20.285156 29.671875 20.285156 29.671875 C 20.328125 29.457031 20.183594 29.285156 19.964844 29.285156 C 19.964844 29.285156 17.035156 29.285156 16.0625 29.285156 C 15.835938 29.285156 15.742188 29.402344 15.695312 29.515625 C 15.558594 29.832031 15.261719 30.371094 15.09375 30.636719 C 14.867188 31.003906 14.101562 30.929688 10.179688 30.980469 C 7.902344 31.007812 7.015625 31.035156 6.421875 31.019531 C 6.105469 31.011719 5.941406 30.976562 5.878906 30.878906 C 5.824219 30.796875 5.824219 30.703125 5.808594 30.566406 C 5.773438 30.226562 5.761719 30.113281 5.761719 30.113281 C 5.742188 29.894531 5.546875 29.71875 5.328125 29.71875 L 2.847656 29.71875 C 2.628906 29.71875 2.421875 29.847656 2.429688 30.0625 C 2.4375 30.199219 2.449219 30.324219 2.625 30.636719 C 2.890625 31.121094 3.171875 31.128906 3.269531 32.253906 C 3.300781 32.621094 3.324219 32.871094 3.339844 33.035156 C 3.371094 33.378906 3.570312 33.4375 3.695312 33.457031 C 3.832031 33.476562 3.976562 33.488281 4.089844 33.488281 C 4.089844 33.488281 13.953125 33.488281 15.59375 33.488281 C 17.230469 33.488281 17.671875 33.347656 18.714844 32.421875 C 19.394531 31.820312 19.816406 30.976562 20.050781 30.382812 L 18.574219 30.382812 "/></g><path style=" stroke:none;fill-rule:nonzero;fill:#000000;fill-opacity:1;" d="M 15.570312 29.132812 L 15.554688 28.933594 L 17.046875 28.933594 L 17.046875 28.449219 L 15.035156 28.449219 L 15.035156 29.730469 L 15.289062 29.730469 C 15.433594 29.460938 15.550781 29.214844 15.570312 29.132812 "/><path style=" stroke:none;fill-rule:nonzero;fill:#000000;fill-opacity:1;" d="M 14.796875 26.914062 L 12.785156 26.914062 L 12.785156 28.195312 L 14.796875 28.195312 L 14.796875 26.914062 "/><path style=" stroke:none;fill-rule:nonzero;fill:#000000;fill-opacity:1;" d="M 15.152344 29.984375 L 15.035156 29.984375 L 15.035156 30.195312 C 15.074219 30.128906 15.113281 30.058594 15.152344 29.984375 "/><path style=" stroke:none;fill-rule:nonzero;fill:#000000;fill-opacity:1;" d="M 19.296875 28.933594 L 19.296875 28.449219 L 17.285156 28.449219 L 17.285156 28.933594 L 19.296875 28.933594 "/><path style=" stroke:none;fill-rule:nonzero;fill:#000000;fill-opacity:1;" d="M 17.046875 26.914062 L 15.035156 26.914062 L 15.035156 28.195312 L 17.046875 28.195312 L 17.046875 26.914062 "/><path style=" stroke:none;fill-rule:nonzero;fill:#000000;fill-opacity:1;" d="M 12.546875 28.449219 L 10.535156 28.449219 L 10.535156 29.730469 L 12.546875 29.730469 L 12.546875 28.449219 "/><path style=" stroke:none;fill-rule:nonzero;fill:#000000;fill-opacity:1;" d="M 11.382812 30.617188 C 11.820312 30.613281 12.203125 30.609375 12.546875 30.601562 L 12.546875 29.984375 L 10.535156 29.984375 L 10.535156 30.625 L 11.382812 30.617188 "/><path style=" stroke:none;fill-rule:nonzero;fill:#000000;fill-opacity:1;" d="M 14.796875 30.464844 L 14.796875 29.984375 L 12.785156 29.984375 L 12.785156 30.597656 C 13.9375 30.582031 14.546875 30.550781 14.796875 30.464844 "/><path style=" stroke:none;fill-rule:nonzero;fill:#000000;fill-opacity:1;" d="M 14.796875 28.449219 L 12.785156 28.449219 L 12.785156 29.730469 L 14.796875 29.730469 L 14.796875 28.449219 "/><g clip-rule="nonzero" clip-path="url(#feb922594e)"><path style=" stroke:none;fill-rule:nonzero;fill:#040606;fill-opacity:1;" d="M 6.394531 26.316406 L 5.847656 26.316406 L 5.847656 26.019531 L 6.394531 26.019531 Z M 5.5625 26.316406 L 5.019531 26.316406 L 5.019531 26.019531 L 5.5625 26.019531 Z M 6.699219 26.5625 L 6.699219 26.019531 L 7.355469 26.019531 L 7.355469 25.984375 C 7.355469 25.765625 7.175781 25.589844 6.957031 25.589844 L 4.714844 25.589844 C 4.496094 25.589844 4.316406 25.765625 4.316406 25.984375 L 4.316406 26.019531 L 4.734375 26.019531 L 4.734375 26.316406 L 4.316406 26.316406 L 4.316406 27.5 L 7.355469 27.5 L 7.355469 26.5625 L 6.699219 26.5625 "/></g><path style=" stroke:none;fill-rule:nonzero;fill:#040606;fill-opacity:1;" d="M 7.535156 28.570312 L 6.851562 28.570312 L 6.851562 28.195312 L 7.535156 28.195312 Z M 6.496094 28.570312 L 5.8125 28.570312 L 5.8125 28.195312 L 6.496094 28.195312 Z M 5.457031 28.570312 L 4.777344 28.570312 L 4.777344 28.195312 L 5.457031 28.195312 Z M 7.917969 28.875 L 7.917969 28.195312 L 8.707031 28.195312 C 8.707031 27.976562 8.527344 27.796875 8.308594 27.796875 L 3.90625 27.796875 C 3.6875 27.796875 3.511719 27.976562 3.511719 28.195312 L 4.375 28.195312 L 4.375 28.570312 L 3.511719 28.570312 L 3.511719 28.972656 C 3.511719 29.191406 3.6875 29.367188 3.90625 29.367188 L 5.632812 29.367188 C 5.9375 29.367188 6.03125 29.421875 6.050781 29.566406 C 6.066406 29.667969 6.066406 29.726562 6.085938 29.945312 C 6.085938 29.945312 6.101562 30.101562 6.121094 30.273438 C 6.140625 30.449219 6.238281 30.589844 6.363281 30.597656 C 6.597656 30.613281 6.785156 30.628906 7 30.628906 L 8.308594 30.628906 C 8.527344 30.628906 8.707031 30.453125 8.707031 30.234375 L 8.707031 28.875 L 7.917969 28.875 "/><g clip-rule="nonzero" clip-path="url(#fd9826717f)"><path style=" stroke:none;fill-rule:nonzero;fill:#000000;fill-opacity:1;" d="M 32.4375 27.21875 L 30.507812 27.21875 C 30.40625 27.222656 30.363281 27.171875 30.378906 27.070312 L 30.644531 25.023438 C 30.664062 24.921875 30.621094 24.875 30.515625 24.875 L 21.953125 24.875 C 21.8125 24.878906 21.6875 24.929688 21.578125 25.023438 C 21.472656 25.121094 21.40625 25.238281 21.386719 25.378906 L 21.332031 25.789062 L 24.632812 25.789062 C 24.765625 25.785156 24.875 25.835938 24.960938 25.933594 C 25.046875 26.035156 25.082031 26.148438 25.058594 26.28125 C 25.039062 26.417969 24.976562 26.53125 24.871094 26.625 C 24.765625 26.71875 24.644531 26.765625 24.503906 26.769531 L 20.015625 26.769531 C 19.800781 26.773438 19.675781 26.878906 19.644531 27.09375 L 19.644531 27.101562 C 19.632812 27.1875 19.652344 27.261719 19.710938 27.328125 C 19.765625 27.390625 19.835938 27.421875 19.921875 27.421875 L 24.421875 27.421875 C 24.554688 27.417969 24.664062 27.46875 24.75 27.566406 C 24.839844 27.667969 24.871094 27.78125 24.847656 27.910156 C 24.828125 28.050781 24.765625 28.164062 24.660156 28.257812 C 24.554688 28.351562 24.433594 28.398438 24.292969 28.402344 L 20.957031 28.402344 C 20.746094 28.40625 20.625 28.515625 20.59375 28.722656 L 20.59375 28.730469 C 20.582031 28.816406 20.601562 28.890625 20.660156 28.957031 C 20.714844 29.019531 20.785156 29.054688 20.871094 29.050781 L 24.210938 29.050781 C 24.339844 29.050781 24.449219 29.097656 24.535156 29.195312 C 24.621094 29.296875 24.652344 29.410156 24.632812 29.539062 C 24.613281 29.675781 24.550781 29.792969 24.445312 29.882812 C 24.339844 29.976562 24.21875 30.023438 24.078125 30.027344 L 20.511719 30.027344 C 20.300781 30.035156 20.183594 30.140625 20.152344 30.347656 C 20.136719 30.433594 20.160156 30.507812 20.214844 30.574219 C 20.269531 30.636719 20.34375 30.667969 20.425781 30.667969 L 20.695312 30.667969 L 20.535156 31.914062 C 20.511719 32.046875 20.546875 32.164062 20.636719 32.269531 C 20.722656 32.371094 20.835938 32.417969 20.972656 32.417969 L 21.652344 32.417969 C 21.527344 33.351562 22.191406 34.113281 23.125 34.113281 C 24.0625 34.113281 24.921875 33.351562 25.042969 32.417969 L 28.589844 32.417969 C 28.464844 33.351562 29.128906 34.113281 30.066406 34.113281 C 31.003906 34.113281 31.859375 33.351562 31.984375 32.417969 L 32.925781 32.417969 C 33.023438 32.414062 33.082031 32.363281 33.09375 32.265625 L 33.449219 29.53125 Z M 24.359375 32.449219 C 24.3125 32.722656 24.183594 32.949219 23.972656 33.132812 C 23.765625 33.316406 23.523438 33.417969 23.246094 33.433594 C 23.109375 33.441406 22.980469 33.417969 22.855469 33.367188 C 22.726562 33.3125 22.621094 33.234375 22.53125 33.132812 C 22.441406 33.03125 22.378906 32.914062 22.34375 32.78125 C 22.308594 32.648438 22.304688 32.515625 22.332031 32.382812 C 22.382812 32.109375 22.511719 31.882812 22.71875 31.699219 C 22.925781 31.515625 23.164062 31.414062 23.441406 31.398438 C 23.578125 31.390625 23.710938 31.410156 23.835938 31.464844 C 23.960938 31.515625 24.070312 31.59375 24.160156 31.695312 C 24.25 31.800781 24.3125 31.917969 24.347656 32.050781 C 24.382812 32.183594 24.386719 32.316406 24.359375 32.449219 Z M 31.296875 32.449219 C 31.25 32.722656 31.121094 32.949219 30.914062 33.132812 C 30.707031 33.316406 30.464844 33.417969 30.191406 33.433594 C 30.054688 33.441406 29.921875 33.417969 29.796875 33.367188 C 29.671875 33.3125 29.5625 33.234375 29.472656 33.132812 C 29.382812 33.03125 29.320312 32.914062 29.285156 32.78125 C 29.253906 32.648438 29.25 32.515625 29.277344 32.382812 C 29.324219 32.109375 29.453125 31.882812 29.660156 31.699219 C 29.867188 31.515625 30.109375 31.414062 30.382812 31.398438 C 30.519531 31.390625 30.652344 31.414062 30.777344 31.464844 C 30.902344 31.519531 31.011719 31.597656 31.101562 31.699219 C 31.191406 31.800781 31.25 31.917969 31.285156 32.050781 C 31.320312 32.183594 31.324219 32.316406 31.296875 32.449219 Z M 30.066406 29.535156 L 30.261719 28.058594 L 31.996094 28.058594 L 32.664062 29.542969 Z M 30.066406 29.535156 "/></g><g clip-rule="nonzero" clip-path="url(#95da5ef7aa)"><path style=" stroke:none;fill-rule:nonzero;fill:#000000;fill-opacity:1;" d="M 22.128906 20.972656 L 24.324219 19.695312 L 24.324219 22.25 L 22.128906 23.527344 Z M 16.917969 18.996094 L 13.152344 18.503906 C 12.609375 18.464844 12.183594 18.5 11.867188 18.609375 C 11.652344 18.6875 11.488281 18.800781 11.382812 18.949219 L 14.746094 20.359375 Z M 23.347656 16.421875 C 22.820312 16.285156 22.28125 16.296875 21.765625 16.515625 C 21.109375 16.832031 19.015625 18.175781 15.6875 20.308594 C 14.5 21.070312 13.144531 21.941406 11.4375 23.03125 C 11.378906 23.066406 11.300781 23.070312 11.242188 23.035156 C 11.003906 22.882812 10.800781 22.75 10.605469 22.625 C 10.03125 22.253906 9.503906 21.914062 9.0625 21.675781 C 8.585938 21.421875 8.230469 21.289062 8.074219 21.386719 C 8.328125 21.839844 9.308594 23.59375 10.042969 24.84375 C 10.6875 24.921875 11.777344 24.6875 12.964844 24.316406 C 14.523438 23.828125 16.226562 23.097656 17.296875 22.511719 C 17.328125 22.492188 17.363281 22.484375 17.402344 22.484375 C 17.5 22.492188 17.578125 22.578125 17.570312 22.675781 L 17.25 27.953125 C 17.503906 27.832031 17.722656 27.667969 17.910156 27.460938 C 18.15625 27.183594 18.347656 26.832031 18.480469 26.398438 C 18.484375 26.394531 18.484375 26.394531 18.484375 26.390625 C 18.679688 25.820312 18.886719 25.210938 19.097656 24.558594 C 19.292969 23.972656 19.488281 23.359375 19.6875 22.730469 L 19.308594 22.511719 C 19.25 22.476562 19.21875 22.417969 19.21875 22.355469 L 19.21875 19.382812 C 19.21875 19.308594 19.261719 19.246094 19.324219 19.21875 L 21.859375 17.738281 C 21.917969 17.703125 21.988281 17.707031 22.042969 17.742188 L 23.414062 18.539062 C 23.746094 18.28125 24.035156 18.039062 24.289062 17.8125 C 24.507812 17.621094 24.695312 17.4375 24.859375 17.261719 C 24.394531 16.859375 23.878906 16.5625 23.347656 16.421875 Z M 23.347656 18.917969 C 23.339844 18.914062 23.332031 18.910156 23.328125 18.90625 L 21.949219 18.105469 L 19.753906 19.382812 L 20.21875 19.652344 L 21.933594 18.65625 C 21.992188 18.617188 22.066406 18.613281 22.128906 18.652344 L 23.027344 19.234375 C 23.050781 19.25 23.070312 19.269531 23.085938 19.296875 C 23.132812 19.382812 23.105469 19.492188 23.019531 19.542969 L 21.523438 20.410156 L 21.949219 20.660156 L 24.144531 19.382812 Z M 21.292969 21.824219 C 21.292969 21.890625 21.257812 21.957031 21.191406 21.988281 C 21.105469 22.03125 20.996094 21.992188 20.953125 21.902344 L 20.585938 21.144531 L 20.300781 21.398438 C 20.265625 21.433594 20.21875 21.453125 20.167969 21.453125 C 20.070312 21.453125 19.988281 21.375 19.988281 21.273438 L 19.988281 19.933594 L 19.578125 19.695312 L 19.578125 22.25 L 19.976562 22.484375 C 19.988281 22.488281 19.996094 22.492188 20.003906 22.5 L 21.769531 23.527344 L 21.769531 20.972656 L 21.292969 20.695312 Z M 20.78125 20.734375 C 20.792969 20.746094 20.800781 20.757812 20.808594 20.773438 L 20.933594 21.039062 L 20.933594 20.441406 C 20.933594 20.371094 20.976562 20.308594 21.035156 20.277344 L 21.074219 20.257812 L 21.078125 20.253906 L 22.585938 19.375 L 22.027344 19.015625 L 20.347656 19.996094 L 20.347656 20.875 L 20.527344 20.714844 C 20.601562 20.648438 20.714844 20.660156 20.78125 20.734375 Z M 20.78125 20.734375 "/></g></g></svg>