<svg xmlns="http://www.w3.org/2000/svg" xmlns:xlink="http://www.w3.org/1999/xlink" width="48" zoomAndPan="magnify" viewBox="0 0 36 36.000001" height="48" preserveAspectRatio="xMidYMid meet" version="1.2"><defs><clipPath id="e757dd4220"><path d="M 0.488281 17 L 35.511719 17 L 35.511719 35 L 0.488281 35 Z M 0.488281 17 "/></clipPath><clipPath id="92fdd36400"><path d="M 4 24 L 31.71875 24 L 31.71875 31.566406 L 4 31.566406 Z M 4 24 "/></clipPath><clipPath id="9f8293218d"><path d="M 6 19.160156 L 12 19.160156 L 12 23 L 6 23 Z M 6 19.160156 "/></clipPath></defs><g id="0855162db0"><g clip-rule="nonzero" clip-path="url(#e757dd4220)"><path style=" stroke:none;fill-rule:nonzero;fill:#ff6b00;fill-opacity:1;" d="M 30.105469 34.683594 L 5.894531 34.683594 C 4.179688 34.683594 2.597656 33.84375 1.636719 32.417969 C 0.675781 30.992188 0.488281 29.207031 1.121094 27.609375 L 3.714844 21.121094 C 4.503906 19.160156 6.375 17.890625 8.488281 17.890625 L 13.484375 17.890625 C 14.429688 17.890625 15.203125 18.664062 15.203125 19.609375 C 15.203125 20.550781 14.429688 21.324219 13.484375 21.324219 L 8.488281 21.324219 C 7.785156 21.324219 7.148438 21.753906 6.890625 22.40625 L 4.296875 28.898438 C 4.09375 29.429688 4.144531 30.03125 4.46875 30.492188 C 4.796875 30.957031 5.328125 31.25 5.894531 31.25 L 30.085938 31.25 C 30.65625 31.25 31.1875 30.976562 31.511719 30.492188 C 31.839844 30.011719 31.890625 29.429688 31.683594 28.898438 L 29.09375 22.40625 C 28.835938 21.753906 28.199219 21.324219 27.496094 21.324219 L 22.515625 21.324219 C 21.570312 21.324219 20.796875 20.550781 20.796875 19.609375 C 20.796875 18.664062 21.570312 17.890625 22.515625 17.890625 L 27.496094 17.890625 C 29.605469 17.890625 31.496094 19.160156 32.285156 21.136719 L 34.878906 27.625 C 35.511719 29.207031 35.324219 31.007812 34.363281 32.433594 C 33.402344 33.859375 31.804688 34.699219 30.105469 34.699219 Z M 30.105469 34.683594 "/></g><path style=" stroke:none;fill-rule:nonzero;fill:#ff6b00;fill-opacity:1;" d="M 18 15.898438 C 15.167969 15.898438 12.847656 13.582031 12.847656 10.75 C 12.847656 7.914062 15.167969 5.597656 18 5.597656 C 20.832031 5.597656 23.152344 7.914062 23.152344 10.75 C 23.152344 13.582031 20.832031 15.898438 18 15.898438 Z M 18 9.03125 C 17.054688 9.03125 16.28125 9.804688 16.28125 10.75 C 16.28125 11.691406 17.054688 12.464844 18 12.464844 C 18.945312 12.464844 19.71875 11.691406 19.71875 10.75 C 19.71875 9.804688 18.945312 9.03125 18 9.03125 Z M 18 9.03125 "/><path style=" stroke:none;fill-rule:nonzero;fill:#ff6b00;fill-opacity:1;" d="M 18.015625 26.097656 C 16.625 26.097656 15.320312 25.410156 14.53125 24.246094 L 13.792969 23.144531 C 11.871094 20.277344 9.621094 16.929688 9.464844 16.6875 C 8.246094 14.9375 7.59375 12.894531 7.59375 10.75 C 7.59375 5.015625 12.265625 0.34375 18 0.34375 C 23.734375 0.34375 28.40625 5.015625 28.40625 10.75 C 28.40625 12.894531 27.753906 14.9375 26.535156 16.6875 C 26.34375 16.945312 23.527344 21.1875 21.503906 24.246094 C 20.710938 25.410156 19.425781 26.097656 18.015625 26.117188 Z M 18.015625 3.777344 C 14.171875 3.777344 11.046875 6.902344 11.046875 10.75 C 11.046875 12.171875 11.476562 13.546875 12.300781 14.730469 C 12.4375 14.9375 14.71875 18.335938 16.660156 21.238281 L 17.398438 22.339844 C 17.535156 22.542969 17.777344 22.664062 18.035156 22.664062 C 18.292969 22.664062 18.53125 22.542969 18.667969 22.320312 C 20.710938 19.246094 23.5625 14.957031 23.734375 14.714844 C 24.558594 13.546875 24.988281 12.15625 24.988281 10.730469 C 24.988281 6.886719 21.863281 3.761719 18.015625 3.761719 Z M 18.015625 3.777344 "/><g clip-rule="nonzero" clip-path="url(#92fdd36400)"><path style=" stroke:none;fill-rule:nonzero;fill:#040606;fill-opacity:1;" d="M 22.347656 28.878906 C 22.15625 28.878906 22 28.722656 22 28.53125 C 22 28.339844 22.15625 28.183594 22.347656 28.183594 C 22.539062 28.183594 22.691406 28.339844 22.691406 28.53125 C 22.691406 28.722656 22.539062 28.878906 22.347656 28.878906 Z M 20.351562 28.878906 C 20.160156 28.878906 20.003906 28.722656 20.003906 28.53125 C 20.003906 28.339844 20.160156 28.183594 20.351562 28.183594 C 20.542969 28.183594 20.699219 28.339844 20.699219 28.53125 C 20.699219 28.722656 20.542969 28.878906 20.351562 28.878906 Z M 18.355469 28.878906 C 18.164062 28.878906 18.007812 28.722656 18.007812 28.53125 C 18.007812 28.339844 18.164062 28.183594 18.355469 28.183594 C 18.546875 28.183594 18.703125 28.339844 18.703125 28.53125 C 18.703125 28.722656 18.546875 28.878906 18.355469 28.878906 Z M 16.363281 28.878906 C 16.171875 28.878906 16.015625 28.722656 16.015625 28.53125 C 16.015625 28.339844 16.171875 28.183594 16.363281 28.183594 C 16.554688 28.183594 16.707031 28.339844 16.707031 28.53125 C 16.707031 28.722656 16.554688 28.878906 16.363281 28.878906 Z M 14.367188 28.878906 C 14.175781 28.878906 14.019531 28.722656 14.019531 28.53125 C 14.019531 28.339844 14.175781 28.183594 14.367188 28.183594 C 14.558594 28.183594 14.714844 28.339844 14.714844 28.53125 C 14.714844 28.722656 14.558594 28.878906 14.367188 28.878906 Z M 12.371094 28.878906 C 12.179688 28.878906 12.027344 28.722656 12.027344 28.53125 C 12.027344 28.339844 12.179688 28.183594 12.371094 28.183594 C 12.5625 28.183594 12.71875 28.339844 12.71875 28.53125 C 12.71875 28.722656 12.5625 28.878906 12.371094 28.878906 Z M 29 26.585938 L 29 25.992188 L 31.503906 25.992188 C 31.605469 25.679688 31.652344 25.484375 31.652344 25.484375 C 31.71875 25.152344 31.492188 24.882812 31.15625 24.882812 C 31.15625 24.882812 26.621094 24.882812 25.109375 24.882812 C 24.765625 24.882812 24.617188 25.066406 24.542969 25.238281 C 24.328125 25.730469 23.871094 26.566406 23.613281 26.976562 C 23.257812 27.542969 22.078125 27.433594 16 27.507812 C 12.480469 27.554688 11.105469 27.589844 10.1875 27.566406 C 9.695312 27.554688 9.441406 27.503906 9.34375 27.351562 C 9.261719 27.226562 9.261719 27.082031 9.238281 26.871094 C 9.179688 26.34375 9.164062 26.167969 9.164062 26.167969 C 9.132812 25.832031 8.828125 25.554688 8.492188 25.554688 L 4.652344 25.554688 C 4.3125 25.554688 3.992188 25.753906 4.007812 26.089844 C 4.015625 26.300781 4.035156 26.492188 4.304688 26.976562 C 4.722656 27.726562 5.152344 27.742188 5.304688 29.484375 C 5.355469 30.050781 5.390625 30.433594 5.414062 30.691406 C 5.460938 31.226562 5.773438 31.3125 5.964844 31.339844 C 6.175781 31.375 6.398438 31.394531 6.574219 31.394531 C 6.574219 31.394531 21.847656 31.394531 24.382812 31.394531 C 26.921875 31.394531 27.605469 31.171875 29.21875 29.742188 C 30.273438 28.808594 30.925781 27.503906 31.289062 26.585938 L 29 26.585938 "/></g><path style=" stroke:none;fill-rule:nonzero;fill:#000000;fill-opacity:1;" d="M 24.347656 24.644531 L 24.328125 24.339844 L 26.636719 24.339844 L 26.636719 23.589844 L 23.523438 23.589844 L 23.523438 25.574219 L 23.917969 25.574219 C 24.136719 25.15625 24.320312 24.773438 24.347656 24.644531 "/><path style=" stroke:none;fill-rule:nonzero;fill:#000000;fill-opacity:1;" d="M 23.15625 21.214844 L 20.039062 21.214844 L 20.039062 23.199219 L 23.15625 23.199219 L 23.15625 21.214844 "/><path style=" stroke:none;fill-rule:nonzero;fill:#000000;fill-opacity:1;" d="M 23.707031 25.96875 L 23.523438 25.96875 L 23.523438 26.296875 C 23.582031 26.191406 23.644531 26.082031 23.707031 25.96875 "/><path style=" stroke:none;fill-rule:nonzero;fill:#000000;fill-opacity:1;" d="M 30.121094 24.339844 L 30.121094 23.589844 L 27.003906 23.589844 L 27.003906 24.339844 L 30.121094 24.339844 "/><path style=" stroke:none;fill-rule:nonzero;fill:#000000;fill-opacity:1;" d="M 26.636719 21.214844 L 23.523438 21.214844 L 23.523438 23.199219 L 26.636719 23.199219 L 26.636719 21.214844 "/><path style=" stroke:none;fill-rule:nonzero;fill:#000000;fill-opacity:1;" d="M 19.671875 23.589844 L 16.558594 23.589844 L 16.558594 25.574219 L 19.671875 25.574219 L 19.671875 23.589844 "/><path style=" stroke:none;fill-rule:nonzero;fill:#000000;fill-opacity:1;" d="M 17.867188 26.945312 C 18.542969 26.9375 19.140625 26.933594 19.671875 26.925781 L 19.671875 25.96875 L 16.558594 25.96875 L 16.558594 26.960938 L 17.867188 26.945312 "/><path style=" stroke:none;fill-rule:nonzero;fill:#000000;fill-opacity:1;" d="M 23.15625 26.707031 L 23.15625 25.96875 L 20.039062 25.96875 L 20.039062 26.917969 C 21.820312 26.890625 22.769531 26.84375 23.15625 26.707031 "/><path style=" stroke:none;fill-rule:nonzero;fill:#000000;fill-opacity:1;" d="M 23.15625 23.589844 L 20.039062 23.589844 L 20.039062 25.574219 L 23.15625 25.574219 L 23.15625 23.589844 "/><g clip-rule="nonzero" clip-path="url(#9f8293218d)"><path style=" stroke:none;fill-rule:nonzero;fill:#040606;fill-opacity:1;" d="M 10.144531 20.289062 L 9.296875 20.289062 L 9.296875 19.828125 L 10.144531 19.828125 Z M 8.859375 20.289062 L 8.011719 20.289062 L 8.011719 19.828125 L 8.859375 19.828125 Z M 10.617188 20.667969 L 10.617188 19.828125 L 11.632812 19.828125 L 11.632812 19.777344 C 11.632812 19.4375 11.355469 19.160156 11.015625 19.160156 L 7.539062 19.160156 C 7.203125 19.160156 6.925781 19.4375 6.925781 19.777344 L 6.925781 19.828125 L 7.574219 19.828125 L 7.574219 20.289062 L 6.925781 20.289062 L 6.925781 22.121094 L 11.632812 22.121094 L 11.632812 20.667969 L 10.617188 20.667969 "/></g><path style=" stroke:none;fill-rule:nonzero;fill:#040606;fill-opacity:1;" d="M 11.90625 23.777344 L 10.851562 23.777344 L 10.851562 23.199219 L 11.90625 23.199219 Z M 10.300781 23.777344 L 9.246094 23.777344 L 9.246094 23.199219 L 10.300781 23.199219 Z M 8.695312 23.777344 L 7.636719 23.777344 L 7.636719 23.199219 L 8.695312 23.199219 Z M 12.5 24.25 L 12.5 23.199219 L 13.722656 23.199219 C 13.722656 22.859375 13.445312 22.582031 13.105469 22.582031 L 6.292969 22.582031 C 5.953125 22.582031 5.679688 22.859375 5.675781 23.199219 L 7.015625 23.199219 L 7.015625 23.777344 L 5.675781 23.777344 L 5.675781 24.398438 C 5.675781 24.738281 5.953125 25.011719 6.292969 25.011719 L 8.96875 25.011719 C 9.4375 25.011719 9.578125 25.09375 9.613281 25.320312 C 9.632812 25.472656 9.636719 25.570312 9.667969 25.90625 C 9.667969 25.90625 9.691406 26.148438 9.722656 26.417969 C 9.75 26.683594 9.898438 26.902344 10.09375 26.914062 C 10.457031 26.941406 10.746094 26.964844 11.085938 26.964844 L 13.105469 26.964844 C 13.445312 26.964844 13.722656 26.691406 13.722656 26.351562 L 13.722656 24.25 L 12.5 24.25 "/></g></svg>